<?xml version="1.0" encoding="UTF-8" standalone="no"?><!-- Generator: Gravit.io --><svg xmlns="http://www.w3.org/2000/svg" xmlns:xlink="http://www.w3.org/1999/xlink" style="isolation:isolate" viewBox="0 0 512 512" width="512pt" height="512pt"><defs><clipPath id="_clipPath_MQQJFi7NYSGsXa18cS90ejn7K7ZEmz9U"><rect width="512" height="512"/></clipPath></defs><g clip-path="url(#_clipPath_MQQJFi7NYSGsXa18cS90ejn7K7ZEmz9U)"><path d=" M 347.474 92.179 C 351.794 97.58 353.354 104.421 354.195 107.901 L 354.435 108.861 C 354.555 109.221 354.795 110.541 355.035 111.862 C 355.395 113.902 355.875 116.422 356.475 119.182 C 351.074 115.222 345.553 111.501 339.673 108.141 C 339.913 104.901 339.793 99.02 339.073 86.778 C 343.153 88.579 346.153 90.499 347.474 92.179 L 347.474 92.179 Z  M 192.534 42.013 C 193.494 40.932 194.094 40.812 197.094 40.692 C 203.095 40.452 207.416 39.972 210.656 38.172 C 215.817 37.692 235.139 36.972 255.302 36.612 C 275.464 36.972 294.787 37.692 299.828 38.172 C 302.948 39.972 307.389 40.452 313.389 40.692 C 316.27 40.932 316.87 41.052 317.83 42.013 C 319.39 48.613 322.03 81.138 322.87 94.219 L 308.949 94.219 C 291.787 88.459 273.784 85.578 255.182 85.578 C 236.579 85.578 218.577 88.459 201.295 94.219 L 187.493 94.219 C 188.213 81.138 190.974 48.613 192.534 42.013 L 192.534 42.013 Z  M 155.209 111.621 C 155.449 110.541 155.689 109.101 155.809 108.621 L 156.049 107.661 C 156.889 104.301 158.569 97.34 162.77 91.939 C 164.09 90.259 167.091 88.339 171.171 86.538 C 170.571 99.02 170.451 104.901 170.571 108.021 C 164.81 111.381 159.17 114.982 153.769 118.942 C 154.369 116.182 154.849 113.662 155.209 111.621 L 155.209 111.621 Z  M 162.77 419.701 C 158.449 414.3 156.769 407.339 156.049 403.979 L 155.809 403.019 C 155.689 402.659 155.449 401.219 155.209 400.018 C 154.849 397.978 154.369 395.458 153.769 392.698 L 154.249 393.058 C 155.689 394.138 157.129 395.218 158.809 396.298 L 160.01 397.018 C 161.57 398.098 163.01 399.058 164.33 399.898 L 164.81 400.258 C 166.25 401.219 167.811 402.179 169.611 403.139 C 169.971 403.379 170.331 403.499 170.571 403.739 C 170.331 406.859 170.451 412.74 171.171 425.102 C 167.091 423.301 164.09 421.381 162.77 419.701 L 162.77 419.701 Z  M 317.71 469.627 C 316.75 470.708 316.15 470.828 313.149 470.948 C 307.148 471.188 302.828 471.668 299.588 473.468 C 294.427 473.948 275.104 474.668 254.942 475.028 C 234.779 474.668 215.457 473.948 210.296 473.468 C 207.176 471.668 202.735 471.188 196.734 470.948 C 193.734 470.828 193.134 470.708 192.174 469.747 C 190.854 463.147 188.213 430.622 187.493 417.541 L 201.655 417.541 C 216.057 422.221 230.939 424.982 245.941 425.822 C 246.061 425.822 246.181 425.822 246.421 425.822 C 247.741 425.942 249.061 425.942 250.261 425.942 C 250.861 425.942 251.461 425.942 252.061 425.942 C 254.102 425.942 256.022 425.942 258.062 425.942 C 258.782 425.942 259.382 425.942 260.102 425.942 C 261.303 425.942 262.503 425.822 263.703 425.822 C 264.063 425.822 264.543 425.822 264.903 425.702 C 279.785 424.862 294.427 422.101 308.589 417.421 L 322.75 417.421 C 321.91 430.502 319.27 463.027 317.71 469.627 L 317.71 469.627 Z  M 355.275 400.379 C 355.035 401.579 354.795 402.899 354.675 403.259 L 354.435 404.219 C 353.594 407.579 351.914 414.54 347.714 419.821 C 346.394 421.501 343.393 423.421 339.313 425.222 C 339.793 412.74 339.913 406.859 339.673 403.739 C 340.033 403.619 340.273 403.379 340.633 403.259 C 342.433 402.179 343.993 401.219 345.553 400.379 L 346.153 400.018 C 347.594 399.178 348.914 398.218 350.354 397.258 L 350.594 397.138 C 350.954 396.898 351.434 396.658 351.794 396.298 C 353.354 395.218 354.795 394.258 356.115 393.298 C 356.355 393.178 356.475 393.058 356.715 392.938 C 356.115 395.698 355.635 398.338 355.275 400.379 L 355.275 400.379 Z  M 256.022 406.739 C 172.731 406.739 105.283 339.291 105.283 256 C 105.283 172.709 172.731 105.141 256.022 105.141 C 339.313 105.141 406.761 172.589 406.761 255.88 C 406.761 339.171 339.313 406.739 256.022 406.739 L 256.022 406.739 Z  M 422.603 324.409 L 413.362 319.008 C 429.324 278.683 429.324 233.437 413.362 193.112 L 422.603 187.711 C 432.325 182.071 423.563 167.069 418.883 159.028 C 409.402 142.585 404.121 141.265 402.441 140.785 C 400.04 140.185 397.64 140.425 395.6 141.745 L 386.119 147.266 C 385.399 146.426 384.678 145.466 383.838 144.626 C 383.118 143.546 380.838 139.825 376.877 132.864 C 373.517 126.863 371.237 114.502 370.157 109.101 C 369.797 107.301 369.556 106.101 369.436 105.261 L 369.196 104.421 C 368.116 99.98 365.956 90.739 359.475 82.698 C 353.954 75.737 342.553 71.416 336.312 69.376 C 336.312 69.016 336.312 68.656 336.192 68.296 C 333.552 37.092 331.872 35.172 330.311 33.251 C 326.471 28.571 322.51 25.81 313.629 25.45 C 310.029 25.33 308.229 25.09 307.509 24.97 C 304.988 22.93 298.867 22.21 255.182 21.37 L 255.062 21.37 L 254.702 21.37 C 211.016 22.21 205.015 22.81 202.375 24.97 C 201.535 25.09 199.855 25.33 196.254 25.45 C 187.373 25.69 183.413 28.571 179.452 33.251 C 177.892 35.172 176.332 37.212 173.691 68.296 C 173.691 68.656 173.691 68.896 173.571 69.256 C 167.331 71.296 155.929 75.737 150.408 82.578 C 144.048 90.619 141.767 99.86 140.687 104.181 L 140.447 105.021 C 140.687 105.861 140.447 107.061 140.087 108.981 C 139.127 114.262 136.847 126.623 133.366 132.624 C 129.166 140.185 126.885 143.786 126.405 144.386 C 71.198 207.994 71.198 303.766 126.405 367.374 C 127.125 368.574 129.406 372.295 133.246 379.136 C 136.727 385.257 139.007 397.618 139.967 402.899 C 140.327 404.699 140.567 405.899 140.687 406.739 L 140.927 407.579 C 142.007 412.02 144.168 421.261 150.648 429.302 C 156.169 436.143 167.451 440.584 173.691 442.624 C 173.691 442.984 173.691 443.344 173.811 443.704 C 176.452 474.908 178.132 476.828 179.692 478.749 C 183.533 483.429 187.493 486.19 196.374 486.55 C 199.975 486.67 201.775 486.91 202.495 487.03 C 205.015 489.07 211.136 489.79 254.822 490.63 L 255.182 490.63 L 255.302 490.63 C 298.987 489.79 304.988 489.19 307.629 487.03 C 308.469 486.91 310.149 486.67 313.749 486.55 C 322.63 486.31 326.591 483.549 330.431 478.749 C 331.992 476.828 333.672 474.908 336.312 443.704 C 336.312 443.344 336.312 442.984 336.432 442.624 C 342.673 440.584 354.074 436.143 359.595 429.302 C 365.956 421.261 368.236 412.02 369.316 407.579 L 369.556 406.739 C 369.797 405.899 370.037 404.699 370.397 402.779 C 371.357 397.498 373.637 385.137 377.117 379.016 C 381.078 372.055 383.358 368.334 384.078 367.134 C 384.798 366.294 385.519 365.454 386.239 364.614 L 395.72 370.255 C 397.04 371.095 398.6 371.455 400.28 371.455 C 401.121 371.455 401.841 371.335 402.681 371.095 C 404.361 370.615 409.522 369.295 419.123 352.852 C 423.563 345.051 432.205 330.049 422.603 324.409 L 422.603 324.409 Z  M 256.12 137.065 C 287.924 137.065 317.808 149.426 340.25 171.869 C 386.696 218.315 386.696 293.805 340.25 340.131 C 317.808 362.574 287.924 374.935 256.12 374.935 C 224.316 374.935 194.432 362.574 171.989 340.131 C 149.546 317.688 137.184 287.804 137.184 256 C 137.184 224.196 149.546 194.312 171.989 171.869 C 194.432 149.426 224.316 137.065 256.12 137.065 L 256.12 137.065 Z  M 351.172 160.948 C 325.849 135.625 292.004 121.583 256.12 121.583 C 220.115 121.583 186.391 135.505 161.067 160.948 C 135.624 186.391 121.582 220.115 121.582 256 C 121.582 291.885 135.624 325.729 160.947 351.052 C 186.391 376.495 220.115 390.417 256 390.417 C 291.884 390.417 325.729 376.375 351.052 351.052 C 376.375 325.729 390.417 291.885 390.417 256 C 390.537 220.115 376.615 186.271 351.172 160.948 L 351.172 160.948 Z " fill-rule="evenodd" fill="rgb(54,141,255)"/></g></svg>